<svg xmlns="http://www.w3.org/2000/svg" viewBox="0 0 128 128">
  <defs>
    <style>
      .a {
        fill: #fff;
      }
    </style>
  </defs>
  <path class="a" d="M123,89.25l5-20.15-17.68-7.83L109,52.85l14.55-12.74L112.81,22.36l-18,7-6.87-5.05L89.22,5,69.09,0,61.26,17.71,52.84,19,40.11,4.46,22.36,15.19l7,18-5,6.87L5,38.75.05,58.9l17.68,7.83L19,75.15,4.46,87.89l10.73,17.75,18-7,6.87,5L38.78,123l20.14,5,7.82-17.71L75.16,109l12.73,14.53,17.75-10.73-7-18,5-6.86ZM77.67,86.61a26.42,26.42,0,1,1,9-36.28A26.44,26.44,0,0,1,77.67,86.61Z"/>
</svg>
