<svg xmlns="http://www.w3.org/2000/svg" xmlns:xlink="http://www.w3.org/1999/xlink" viewBox="0 0 128 128">
  <defs>
    <style>
      .a {
        fill: url(#a);
      }

      .b {
        fill: url(#b);
      }

      .c {
        fill: #fff;
      }
    </style>
    <linearGradient id="a" y1="64" x2="128" y2="64" gradientUnits="userSpaceOnUse">
      <stop offset="0" stop-color="#ff8df8"/>
      <stop offset="1" stop-color="#ef5ee3"/>
    </linearGradient>
    <linearGradient id="b" x1="7.88" x2="115.52" xlink:href="#a"/>
  </defs>
  <g>
    <path class="a" d="M64,0a64,64,0,1,0,64,64A64.07,64.07,0,0,0,64,0Zm0,122.55a58.28,58.28,0,0,1-39.91-15.76,53.65,53.65,0,0,1-3.81-3.88A58.52,58.52,0,0,1,102.9,20.28c1.36,1.21,2.67,2.48,3.9,3.81A58.51,58.51,0,0,1,64,122.55Z"/>
    <g>
      <path class="b" d="M115.52,64A51.55,51.55,0,0,1,78.7,113.39a50.62,50.62,0,0,1-10.8,2c-1.28.1-2.59.15-3.9.15a51.52,51.52,0,1,1,0-103,52.92,52.92,0,0,1,8.79.74A51.54,51.54,0,0,1,115.52,64Z"/>
      <g>
        <path class="c" d="M102.13,85.51c-1.39,2.52-2.8,5-4.19,7.57a3.43,3.43,0,0,1-2.39,1.83l-2.29.53a3.55,3.55,0,0,0-2.88,3.43,11.59,11.59,0,0,1-.22,1.29c-.35,1.76-1.57,3-2.74,4.16-2.73,2.86-5.49,5.7-8.21,8.58-.16.17-.34.33-.51.49a50.62,50.62,0,0,1-10.8,2c.41-1.71.95-3.39,1.43-5.09,1.33-4.8,2.76-9.56,4.06-14.37a5.6,5.6,0,0,0-1.76-5.8,11.16,11.16,0,0,1-3.23-4.35,33,33,0,0,1-1.05-4.52,17.62,17.62,0,0,1-.62-3.54A6.83,6.83,0,0,1,67.81,74a1.68,1.68,0,0,0-1.13-2.81,2,2,0,0,1-1.17-.79c-1-1.26-1.9-2.51-2.83-3.78a2.33,2.33,0,0,0-1.15-.83Q57.89,64.39,54.26,63a9,9,0,0,1-4.64-4L42.24,46.42a13.82,13.82,0,0,1-1.71-7.06,15.91,15.91,0,0,0-1.62-7.87,39.62,39.62,0,0,0-6.49-8.2A51.29,51.29,0,0,1,64,12.48a52.92,52.92,0,0,1,8.79.74,4,4,0,0,1-3.59,2.72,8,8,0,0,0-6.4,4.52,2.68,2.68,0,0,0,.53,3.3c2.18,2.21,4.37,4.41,6.55,6.63a1.63,1.63,0,0,0,1.8.52,1.58,1.58,0,0,0,1-1.5c.24-2.46.49-4.92.71-7.39A3.47,3.47,0,0,1,80,20.72c.5,1,1,2,1.46,3.07a1.51,1.51,0,0,0,2.27.8,1.53,1.53,0,0,1,2.27.83q2,4.47,3.88,9a3.79,3.79,0,0,1-2,5.09c-1,.45-2,.84-2.93,1.24A36.71,36.71,0,0,0,70.69,51.2a1.51,1.51,0,0,0-.35,1.21c.09,1,.15,2,.18,3.05a1.21,1.21,0,0,1-1.31,1.36,2.49,2.49,0,0,1-2.33-1.57c-.73-1.7-1.46-2.15-3.27-1.9a9.41,9.41,0,0,0-3.29.77c-1.68.92-2.35,2.54-2.83,4.23a1.86,1.86,0,0,0,.91,2.09,1.44,1.44,0,0,0,1.79,0,3.37,3.37,0,0,1,2.91-.58c1.21.21,1.54.65,1.18,1.81a1.69,1.69,0,0,0,1.59,2.48,1.6,1.6,0,0,1,1.5,1.47c.08.54.14,1.09.21,1.64.13,1,.51,1.55,1.3,1.75A1.81,1.81,0,0,0,71,68.07a4.41,4.41,0,0,1,4-2,15.31,15.31,0,0,1,1.66.18,48.14,48.14,0,0,1,5.33.88c2.71.76,4.81,2.5,7,4.09a7.26,7.26,0,0,1,2.77,3.68,5,5,0,0,0,2.67,2.87c2.09,1,4.2,2,6.28,3.07A3.44,3.44,0,0,1,102.13,85.51Z"/>
        <path class="c" d="M74.67,61.4c-.7.09-1.52.21-2.34.3a3.47,3.47,0,0,1-3.08-1.27c-.38-.43-.3-.78.24-.91,1.77-.44,3.53-.9,5.31-1.27a6.11,6.11,0,0,1,3,.4c2,.58,4,1.18,6,1.78.75.22.91.63.5,1.28-.55.88-.8,1-1.82.83l-6.85-1.06Z"/>
        <path class="c" d="M87.81,61.38a10.29,10.29,0,0,1,5,2.54c.41.39.28.71-.28.89a1.28,1.28,0,0,1-.75,0c-1.75-.48-3.5-1-5.27-1.42-.43-.11-.56-.24-.26-.63s.38-.57.57-.86A1.07,1.07,0,0,1,87.81,61.38Z"/>
      </g>
    </g>
    <path class="c" d="M106.8,24.09l-82.71,82.7a53.65,53.65,0,0,1-3.81-3.88L102.9,20.28C104.26,21.49,105.57,22.76,106.8,24.09Z"/>
  </g>
</svg>
