<svg xmlns="http://www.w3.org/2000/svg" viewBox="0 0 128 128">
  <defs>
    <style>
      .a {
        fill: #fff;
      }
    </style>
  </defs>
  <g>
    <path class="a" d="M53.45,104.45a2.6,2.6,0,0,1-1-.26c-.39-.17-.8-.35-1.24-.52L4.34,71.75a13.44,13.44,0,0,1-2.8-2.54A4.94,4.94,0,0,1,.56,66V62a4.71,4.71,0,0,1,1-3.13,14.93,14.93,0,0,1,2.8-2.47L51.23,24.46a13.7,13.7,0,0,1,1.24-.65,2.6,2.6,0,0,1,1-.26,2.67,2.67,0,0,1,2.73,2.74V40.23A4.18,4.18,0,0,1,55,43.42a22.46,22.46,0,0,1-2.47,2L24.14,64.06l28.4,18.76A17.13,17.13,0,0,1,55,84.65a4,4,0,0,1,1.17,3.12v14.07a2.42,2.42,0,0,1-.78,1.89A2.76,2.76,0,0,1,53.45,104.45Z"/>
    <path class="a" d="M74.42,104.45a2.6,2.6,0,0,1-1.82-.72,2.42,2.42,0,0,1-.78-1.89V87.77A4,4,0,0,1,73,84.65a16.6,16.6,0,0,1,2.47-1.83l28.27-18.76L75.46,45.44a13.2,13.2,0,0,1-2.47-2,4.22,4.22,0,0,1-1.17-3.12V26.29a2.44,2.44,0,0,1,.78-1.89,2.6,2.6,0,0,1,1.82-.72,2.79,2.79,0,0,1,1.11.26l1.11.52,47,31.92a12.21,12.21,0,0,1,2.87,2.47,5.2,5.2,0,0,1,.91,3.26V66a5.22,5.22,0,0,1-.91,3.19,11.23,11.23,0,0,1-2.87,2.54l-47,31.92c-.35.17-.72.35-1.11.52A2.79,2.79,0,0,1,74.42,104.45Z"/>
  </g>
</svg>
