<svg xmlns="http://www.w3.org/2000/svg" viewBox="0 0 128 128">
  <defs>
    <style>
      .a {
        fill: #fff;
      }
    </style>
  </defs>
  <g>
    <path class="a" d="M37.11,94.3H30.3c0-.76.38-18.56,33.7-18.56,26.89,0,26.89-11.87,26.89-26.89H97.7c0,15,0,33.71-33.7,33.71C37.84,82.56,37.11,94.18,37.11,94.3Z"/>
    <rect class="a" x="30.3" y="33.7" width="6.82" height="60.59"/>
    <path class="a" d="M33.7,37.11A18.56,18.56,0,1,1,52.26,18.56,18.57,18.57,0,0,1,33.7,37.11Zm0-30.29A11.74,11.74,0,1,0,45.44,18.56,11.75,11.75,0,0,0,33.7,6.82Z"/>
    <path class="a" d="M33.7,128a18.56,18.56,0,1,1,18.56-18.56A18.57,18.57,0,0,1,33.7,128Zm0-30.3a11.74,11.74,0,1,0,11.74,11.74A11.76,11.76,0,0,0,33.7,97.7Z"/>
    <path class="a" d="M94.3,52.26A18.56,18.56,0,1,1,112.85,33.7,18.57,18.57,0,0,1,94.3,52.26Zm0-30.3A11.74,11.74,0,1,0,106,33.7,11.75,11.75,0,0,0,94.3,22Z"/>
  </g>
</svg>
