<svg xmlns="http://www.w3.org/2000/svg" viewBox="0 0 128 128">
  <defs>
    <style>
      .a {
        fill: #fff;
      }
    </style>
  </defs>
  <g>
    <path class="a" d="M70,126.62l-56.69-22.8a9.57,9.57,0,0,1-5.94-7.71L4.19,70a3.18,3.18,0,0,1,4.07-3.42l58.45,17.3a9.57,9.57,0,0,1,6.86,8.91l.82,30.86A3.18,3.18,0,0,1,70,126.62Z"/>
    <path class="a" d="M123.83,20.28l-2.16,58.38a24.21,24.21,0,0,1-7,16.1L85.81,123.94a2.7,2.7,0,0,1-4.61-1.81L80.45,94a15.83,15.83,0,0,1,6.38-13.12l14.54-10.83a8.57,8.57,0,0,0,3.44-6.74l.43-33.13a7.3,7.3,0,0,1,4.52-6.63l11.79-4.86A1.65,1.65,0,0,1,123.83,20.28Z"/>
    <path class="a" d="M97.87,66.71,80,80a7.89,7.89,0,0,1-7,1.24L12.41,63.34a2,2,0,0,1-.21-3.76l22.24-9.33a8,8,0,0,1,4.84-.42L97.12,63.16A2,2,0,0,1,97.87,66.71Z"/>
    <path class="a" d="M101.81,24.61l-.37,27.69a6.8,6.8,0,0,1-8.35,6.52L41.67,47a6.81,6.81,0,0,1-5.27-6.09L34.62,18a6.81,6.81,0,0,1,7.7-7.25L95.89,17.8A6.8,6.8,0,0,1,101.81,24.61Z"/>
    <path class="a" d="M116.84,9,109,12.26a28.75,28.75,0,0,1-14.73,1.92L39.65,7a1,1,0,0,1-.08-2L53.84,1.82a28.93,28.93,0,0,1,9.28-.51l53.44,5.78A1,1,0,0,1,116.84,9Z"/>
  </g>
</svg>
