<svg xmlns="http://www.w3.org/2000/svg" viewBox="0 0 128 128">
  <defs>
    <style>
      .a {
        fill: #fff;
      }
    </style>
  </defs>
  <path class="a" d="M73.26,14,93.42,12.3c2.06,2.06,0,9,0,9L73,20.53V37.75h2.62c1.59,0,1.77.59,1.77.59v9.31c3.32,0,3.54.67,3.54.67V53c1.89,0,2,.53,2,.53V56.3s1.35.73,1.35,3.7v7.55s9.32,6.8,18.72,9.27c8.8,3.41,9.37,8.72,12.2,16,6.73-.36,8.8,1.5,8.8,1.5s5.51,8.15,2.59,12.24c0,0-11.14,10.66-32.14,9-2.71-2.19-5.19-11.15-4.21-13.42s5.23-3.2,5.23-3.2a4.57,4.57,0,0,0-1.22-4.58s-22,14.62-53.24,0H34.43l-.74,2.31H22.57l-1.09,4H15.32l-.54-3.36H3.38s-6.24-10.38,0-25.61H14.73l.9-3.35H21.3l1.62,3.77H32.6l1.67,1.67A37.32,37.32,0,0,1,46,74.13c7.53-.24,8.07-5.8,8.07-5.8V53.51s.07-.53,2-.53V48.32s.22-.67,3.54-.67V38.34s.18-.59,1.77-.59H64V20.53l-20.43.78s-2.06-6.95,0-9L63.73,14Z"/>
</svg>
