<svg xmlns="http://www.w3.org/2000/svg" viewBox="0 0 128 128">
  <defs>
    <style>
      .a {
        fill: #fff;
      }
    </style>
  </defs>
  <g>
    <path class="a" d="M64,128a64,64,0,1,1,64-64A64.07,64.07,0,0,1,64,128ZM64,10.37A53.63,53.63,0,1,0,117.63,64,53.69,53.69,0,0,0,64,10.37Z"/>
    <path class="a" d="M59.11,80.28A1.48,1.48,0,0,1,58,79.76a1.88,1.88,0,0,1-.49-1.36v-3a18.42,18.42,0,0,1,1.74-6.54,28.83,28.83,0,0,1,3.32-5.27q1.89-2.4,3.8-4.57a34.58,34.58,0,0,0,3.23-4.28,10.16,10.16,0,0,0,1.58-4.38,7.31,7.31,0,0,0-.93-4.61,7.72,7.72,0,0,0-3.15-2.87,9.24,9.24,0,0,0-4.17-1,9,9,0,0,0-6.23,2.17q-2.43,2.16-3.31,7a3.12,3.12,0,0,1-.81,1.65,2.18,2.18,0,0,1-1.54.52H44.14a1.63,1.63,0,0,1-1.25-.61,2.45,2.45,0,0,1-.52-1.65,20.58,20.58,0,0,1,1.49-7.29A19.62,19.62,0,0,1,54.58,32.8a22.75,22.75,0,0,1,8.9-1.64,23.25,23.25,0,0,1,9.26,1.64,16.16,16.16,0,0,1,6,4.28,16.54,16.54,0,0,1,3.2,5.7,17.55,17.55,0,0,1-.49,12.37,25.62,25.62,0,0,1-3,5.23c-1.19,1.6-2.4,3.16-3.64,4.7a41.14,41.14,0,0,0-3.27,4.66,14.83,14.83,0,0,0-1.91,5c-.1.56-.19,1.11-.24,1.64s-.11,1.06-.16,1.56a5.23,5.23,0,0,1-.81,1.74,1.64,1.64,0,0,1-1.37.61ZM58.87,98a1.76,1.76,0,0,1-1.38-.66,2.36,2.36,0,0,1-.57-1.6V87.53a2.51,2.51,0,0,1,.57-1.7,1.76,1.76,0,0,1,1.38-.66h7.84a1.85,1.85,0,0,1,1.46.66,2.56,2.56,0,0,1,.56,1.7v8.18a2.4,2.4,0,0,1-.56,1.6,1.85,1.85,0,0,1-1.46.66Z"/>
  </g>
</svg>
